<?xml version="1.0" encoding="UTF-8"?>
<svg id="Layer_2" data-name="Layer 2" xmlns="http://www.w3.org/2000/svg" viewBox="0 0 203.59 51.45">
  <defs>
    <style>
      .cls-1 {
        fill: #fedf51;
      }

      .cls-1, .cls-2, .cls-3, .cls-4, .cls-5 {
        stroke-width: 0px;
      }

      .cls-2 {
        fill: #0061ef;
      }

      .cls-3 {
        fill: #282828;
      }

      .cls-4 {
        fill: #fba1cd;
      }

      .cls-5 {
        fill: #fe7301;
      }
    </style>
  </defs>
  <g id="Layer_1-2" data-name="Layer 1">
    <g>
      <g>
        <path class="cls-3" d="m79.28,17.02c.28-1.01.42-2.02.42-3.03,0-1.24-.41-2.21-1.23-2.91-.82-.69-1.84-1.04-3.06-1.04s-2.22.35-3.02,1.04c-.8.69-1.21,1.66-1.21,2.91,0,1.09.23,2.14.7,3.15.47,1.01,1.11,1.91,1.93,2.72-.61.3-1.27.45-1.98.45-1.7,0-3.07-.61-4.11-1.83-1.03-1.22-1.55-2.87-1.55-4.97,0-1.13.2-2.16.59-3.09.4-.93.93-1.69,1.6-2.27s1.43-1.04,2.28-1.36c.85-.32,1.74-.48,2.66-.48,2.33,0,4.22.66,5.66,1.99l.13-2.85c-1.36-1.08-3.49-1.62-6.39-1.62-1.3,0-2.52.22-3.64.64-1.12.43-2.11,1.05-2.94,1.85-.84.81-1.5,1.83-1.98,3.06-.48,1.23-.72,2.61-.72,4.13s.2,2.97.61,4.17c.4,1.2.98,2.17,1.73,2.91s1.63,1.29,2.64,1.66c1.01.37,2.15.55,3.42.55,1.64,0,3.07-.4,4.29-1.19,1.4.79,2.78,1.19,4.15,1.19v-2.49c-.72,0-1.47-.18-2.27-.55.57-.81,1-1.72,1.28-2.73Zm-3.5,1.16c-.6-.58-1.09-1.22-1.45-1.92s-.54-1.38-.54-2.06c0-.57.14-1.01.42-1.33s.68-.47,1.21-.47.95.16,1.24.48c.29.32.43.76.43,1.32,0,1.49-.43,2.82-1.3,3.97Z"/>
        <path class="cls-3" d="m92.11,9.13c-1.07-.61-2.31-.92-3.69-.92s-2.61.32-3.7.94c-1.09.62-1.96,1.5-2.59,2.6-.62,1.1-.94,2.38-.94,3.79s.32,2.7.96,3.8c.64,1.1,1.56,1.98,2.72,2.61,1.16.63,2.52.95,4.04.95,1.18,0,2.27-.2,3.23-.6.97-.4,1.79-.99,2.44-1.75l.15-.17-1.73-2.03-.2.22c-.48.53-1.04.93-1.67,1.19-.64.26-1.35.4-2.13.4-.95,0-1.79-.19-2.52-.57-.72-.38-1.29-.91-1.69-1.59-.25-.42-.42-.87-.51-1.36h11.18l.03-.23c.02-.13.03-.27.04-.41,0-.14.01-.27.01-.38,0-1.47-.31-2.77-.91-3.88-.61-1.11-1.45-1.99-2.52-2.6Zm-7.38,3.83c.36-.66.86-1.18,1.49-1.54.64-.37,1.37-.55,2.2-.55s1.58.19,2.21.55c.63.37,1.13.88,1.48,1.53.23.41.38.87.46,1.36h-8.3c.09-.49.24-.94.46-1.34Z"/>
        <path class="cls-3" d="m102.29,20.4c-.51-.02-.95-.19-1.33-.51-.37-.32-.56-.84-.56-1.53v-7.14h4.92v-2.48h-4.92v-4.59h-2.75v4.59h-1.35v2.48h1.35v7.64c0,1.15.37,2.08,1.12,2.8.75.72,1.66,1.09,2.75,1.11.61.03,1.29-.02,2.03-.15s1.42-.3,2.04-.54l-.65-2.15c-.86.37-1.74.52-2.64.47Z"/>
      </g>
      <g>
        <path class="cls-2" d="m12.12,25.99l7.31,1.06c7.14,1.04,13.77-3.91,14.8-11.05h0c1.04-7.14-3.91-13.77-11.05-14.8L15.88.14C8.74-.9,2.11,4.05,1.08,11.18h0c-.54,3.74.55,7.33,2.74,10.06.97,1.2-4.54,5.02-3.74,5.3.24.51,9.47-1.13,10.73-.82.43.11.87.19,1.31.26Z"/>
        <circle class="cls-1" cx="16.93" cy="34.96" r="15.53"/>
        <path class="cls-5" d="m52.48,22.2l.78,20.72c.09,2.38-1.76,4.38-4.14,4.47l-20.72.78-.29-7.59-2.07.08c-1.83.07-3.36-1.36-3.43-3.19-.03-.92.31-1.75.88-2.38.58-.62,1.39-1.02,2.31-1.05l2.07-.08-.41-10.82,9.91-.37.08,2.03c.03.92.44,1.73,1.05,2.31.62.57,1.46.91,2.38.88,1.83-.07,3.25-1.6,3.18-3.43l-.08-2.03,8.5-.32Z"/>
        <path class="cls-4" d="m56.61,13.7s0-.08,0-.13c-.02-.74-.1-1.47-.33-2.18-.47-1.66-1.37-2.87-2.13-3.66,0,0,0,0,0,0,0,0,0,0,0,0-.15-.16-.3-.31-.44-.43-.1-.09-.2-.18-.31-.27-.25-.21-.43-.33-.49-.37-.46-.31-.96-.57-1.47-.81-3.27-1.48-6.5-.89-8.96,1.64-.21.22-.25.08-.33-.08-.46-.96-1.1-1.79-1.91-2.48-1.51-1.29-3.29-1.84-5.25-1.75-3.65.16-6.32,1.86-7.83,5.21-1.11,2.47-1.05,5.03-.29,7.58.6,2.01,1.62,3.81,2.84,5.49,2.11,2.91,4.73,5.28,7.72,7.25,1.03.68,2.16.84,3.35.5,1.9-.55,3.74-1.28,5.5-2.18,2.73-1.39,5.2-3.13,7.22-5.46,1.92-2.22,3.11-4.75,3.12-7.72,0-.01,0-.02,0-.03,0-.04,0-.08,0-.11Z"/>
      </g>
      <g>
        <path class="cls-3" d="m73.03,43.78c-3.92,0-6.75-2.85-6.75-6.83s2.83-6.83,6.75-6.83c3.22,0,5.31,1.73,5.89,3.98h2.88c-.71-3.9-4.29-6.59-8.79-6.59-5.47,0-9.57,4.16-9.57,9.44s4.11,9.44,9.57,9.44c4.53,0,8.11-2.69,8.82-6.62h-2.88c-.6,2.28-2.69,4-5.91,4Z"/>
        <path class="cls-3" d="m94.34,32.78c-1.13-.62-2.41-.94-3.83-.94s-2.73.31-3.85.94c-1.12.62-2.01,1.5-2.66,2.6-.65,1.1-.98,2.38-.98,3.8s.33,2.68.98,3.79c.65,1.11,1.55,1.99,2.66,2.62,1.12.63,2.41.95,3.85.95s2.71-.32,3.83-.95c1.13-.63,2.02-1.51,2.66-2.61.64-1.1.96-2.38.96-3.8s-.32-2.72-.97-3.81c-.64-1.09-1.54-1.96-2.67-2.58Zm-1.57,10.45c-.66.38-1.42.57-2.26.57s-1.59-.19-2.25-.57c-.65-.37-1.18-.92-1.58-1.61-.39-.7-.59-1.52-.59-2.45s.2-1.76.59-2.44c.39-.68.92-1.21,1.58-1.59.65-.38,1.41-.57,2.25-.57s1.6.19,2.26.57c.66.37,1.18.91,1.56,1.58.38.68.57,1.5.57,2.45s-.19,1.75-.57,2.45c-.38.69-.9,1.23-1.56,1.61Z"/>
        <path class="cls-3" d="m115.23,32.03c-1.43,0-3.34.83-5.74,2.49-1.15-.8-2.19-1.42-3.11-1.85-.92-.43-1.79-.65-2.59-.65-1.24,0-2.27.41-3.07,1.23-.8.82-1.2,1.99-1.2,3.51v9.34h2.75v-9.26c0-.49.08-.86.23-1.13.15-.27.37-.5.64-.7.55-.12,1.15-.06,1.78.19.63.24,1.42.65,2.34,1.22-1.41,1.49-2.12,3.25-2.12,5.26,0,1.41.38,2.56,1.14,3.43.76.87,1.84,1.31,3.25,1.31s2.48-.44,3.23-1.31c.75-.87,1.13-2.02,1.14-3.43,0-2.02-.71-3.77-2.12-5.26.93-.57,1.71-.97,2.35-1.21.64-.23,1.24-.28,1.8-.15.54.38.82.98.82,1.78v9.26h2.75v-9.34c0-1.52-.4-2.7-1.19-3.51-.79-.82-1.82-1.23-3.08-1.23Zm-4.38,11.46c-.29.47-.73.7-1.32.7s-1.04-.23-1.33-.7c-.29-.47-.43-1.06-.43-1.78,0-1.58.59-2.96,1.76-4.14,1.17,1.17,1.75,2.55,1.75,4.14,0,.72-.15,1.31-.43,1.78Z"/>
        <path class="cls-3" d="m133.69,32.77c-1.08-.61-2.34-.92-3.74-.92-1.23,0-2.35.28-3.33.82-.5.27-.95.62-1.34,1.04v-1.72h-2.94v19.48h3.05v-6.74c.38.39.82.72,1.29.98.99.55,2.09.83,3.28.83,1.4,0,2.66-.31,3.74-.92,1.08-.61,1.95-1.48,2.59-2.59.63-1.1.95-2.39.95-3.85s-.32-2.74-.95-3.84c-.63-1.09-1.5-1.96-2.59-2.57Zm-6.19,2.38c.66-.38,1.41-.57,2.24-.57s1.6.19,2.26.57c.66.37,1.19.91,1.57,1.59.39.68.58,1.5.58,2.45s-.2,1.75-.58,2.45c-.38.69-.91,1.24-1.57,1.61-.66.38-1.42.57-2.26.57s-1.57-.19-2.24-.57c-.66-.37-1.19-.92-1.57-1.61-.39-.7-.58-1.52-.58-2.45s.2-1.77.58-2.45c.38-.68.91-1.21,1.57-1.59Z"/>
        <path class="cls-3" d="m151.17,38.52c0-1.91-.62-3.47-1.85-4.68-1.24-1.21-2.96-1.81-5.16-1.81-1.42,0-2.66.26-3.72.77-1.06.52-1.9,1.18-2.53,2l1.53,1.99c.56-.71,1.24-1.27,2.04-1.7.8-.43,1.68-.63,2.64-.63.73,0,1.38.13,1.95.36.57.23,1.02.55,1.37.95s.61.85.79,1.35c.18.5.28,1.05.29,1.64-1.2-.76-2.68-1.14-4.45-1.14-1.01,0-1.97.18-2.87.53-.9.35-1.63.86-2.18,1.52-.56.66-.84,1.39-.84,2.19,0,1.39.53,2.5,1.6,3.32,1.06.83,2.52,1.24,4.37,1.24,2.12,0,3.78-.6,4.97-1.79.03.47.03.96,0,1.47h2.49c.08-1.86-.19-3.42-.79-4.69.23-.92.34-1.89.34-2.9Zm-7.01,5.54c-.97,0-1.76-.19-2.38-.57-.61-.38-.92-.92-.92-1.62,0-.6.31-1.11.93-1.5.62-.4,1.4-.59,2.34-.59,1.76,0,3.1.63,4,1.89-.61,1.6-1.94,2.4-3.97,2.4Z"/>
        <path class="cls-3" d="m164.61,33.18c-.49-.37-1.03-.65-1.65-.85-.61-.2-1.26-.29-1.93-.29-.98,0-1.87.21-2.68.63-.8.42-1.39.94-1.74,1.56h-.22v-1.85h-2.75v13.73h2.75v-8.16c0-.87.37-1.64,1.12-2.32.75-.68,1.58-1.02,2.49-1.02.42,0,.83.06,1.23.19.4.12.77.31,1.11.56.34.25.61.58.81.99s.31.88.31,1.41v8.37h2.75v-9.52c0-.73-.14-1.39-.43-1.98-.29-.59-.68-1.07-1.16-1.44Z"/>
        <rect class="cls-3" x="169.41" y="32.38" width="2.75" height="13.73"/>
        <path class="cls-3" d="m172.61,28c-.1-.08-.16-.17-.17-.26-.03-.09-.02-.2.01-.32.03-.12.05-.2.04-.23-.03-.03-.1-.06-.21-.08-.12-.02-.21-.05-.29-.1-.07-.07-.11-.17-.13-.29-.02-.13-.04-.2-.07-.23-.05-.02-.13,0-.25.03s-.22.04-.3.02c-.09-.03-.18-.09-.26-.19-.08-.1-.14-.15-.19-.15-.03,0-.09.05-.16.15-.07.1-.17.17-.29.19-.09.03-.19.02-.31-.02-.12-.04-.2-.05-.24-.03-.03.03-.06.11-.08.22s-.05.22-.1.3c-.05.05-.14.08-.27.1-.13.02-.2.04-.23.08-.02.04-.01.12.02.24.03.12.03.22,0,.31-.02.09-.07.18-.17.26s-.14.14-.14.19c0,.03.05.09.14.17.09.08.15.16.17.25.03.09.02.2,0,.32-.03.12-.04.2-.02.23.03.03.1.05.22.07.12.02.21.07.28.13.05.07.09.16.11.29.02.12.05.2.1.24.03.02.11,0,.22-.04.12-.05.22-.06.3-.03.09.03.18.1.26.2.08.1.14.15.19.15.05,0,.12-.05.2-.15.08-.1.16-.16.25-.2.08-.03.18-.01.29.03.11.05.19.06.23.04.04-.03.08-.11.1-.24.03-.13.07-.22.13-.28.06-.04.15-.08.27-.11.12-.03.2-.06.22-.1,0-.03,0-.1-.05-.23-.04-.13-.04-.23,0-.32.03-.08.08-.16.18-.24.09-.08.14-.14.14-.19s-.05-.1-.15-.19Z"/>
        <path class="cls-3" d="m185.82,32.78c-1.13-.62-2.41-.94-3.83-.94s-2.73.31-3.85.94c-1.12.62-2.01,1.5-2.66,2.6-.65,1.1-.98,2.38-.98,3.8s.33,2.68.98,3.79c.65,1.11,1.55,1.99,2.66,2.62,1.12.63,2.41.95,3.85.95s2.71-.32,3.83-.95c1.13-.63,2.02-1.51,2.66-2.61.64-1.1.96-2.38.96-3.8s-.32-2.72-.97-3.81c-.64-1.09-1.54-1.96-2.67-2.58Zm-1.57,10.45c-.66.38-1.42.57-2.26.57s-1.59-.19-2.25-.57c-.65-.37-1.18-.92-1.58-1.61-.39-.7-.59-1.52-.59-2.45s.2-1.76.59-2.44c.39-.68.92-1.21,1.58-1.59.65-.38,1.41-.57,2.25-.57s1.6.19,2.26.57c.66.37,1.18.91,1.56,1.58.38.68.57,1.5.57,2.45s-.19,1.75-.57,2.45c-.38.69-.9,1.23-1.56,1.61Z"/>
        <path class="cls-3" d="m203.16,34.61c-.29-.59-.68-1.07-1.16-1.44s-1.03-.65-1.65-.85c-.61-.2-1.26-.29-1.93-.29-.98,0-1.87.21-2.68.63-.8.42-1.39.94-1.74,1.56h-.22v-1.85h-2.75v13.73h2.75v-8.16c0-.87.37-1.64,1.12-2.32.75-.68,1.58-1.02,2.49-1.02.42,0,.83.06,1.23.19.4.12.77.31,1.11.56.34.25.61.58.81.99s.31.88.31,1.41v8.37h2.75v-9.52c0-.73-.14-1.39-.43-1.98Z"/>
      </g>
    </g>
  </g>
</svg>