<?xml version="1.0" encoding="UTF-8"?>
<svg id="Layer_2" data-name="Layer 2" xmlns="http://www.w3.org/2000/svg" viewBox="0 0 200.82 85.41">
  <defs>
    <style>
      .cls-1 {
        fill: #fedf51;
      }

      .cls-1, .cls-2, .cls-3, .cls-4, .cls-5 {
        stroke-width: 0px;
      }

      .cls-2 {
        fill: #0061ef;
      }

      .cls-3 {
        fill: #282828;
      }

      .cls-4 {
        fill: #fba1cd;
      }

      .cls-5 {
        fill: #fe7301;
      }
    </style>
  </defs>
  <g id="Layer_1-2" data-name="Layer 1">
    <g>
      <g>
        <path class="cls-3" d="m16.8,73.97c.3-1.07.45-2.14.45-3.21,0-1.32-.44-2.34-1.31-3.08-.87-.74-1.95-1.1-3.24-1.1s-2.35.37-3.2,1.1c-.85.73-1.28,1.76-1.28,3.08,0,1.15.25,2.27.74,3.34.5,1.07,1.18,2.03,2.04,2.88-.65.32-1.35.47-2.1.47-1.81,0-3.25-.65-4.35-1.94-1.1-1.29-1.64-3.05-1.64-5.26,0-1.2.21-2.29.63-3.28.42-.98.99-1.79,1.7-2.41s1.52-1.1,2.42-1.44c.9-.34,1.84-.51,2.82-.51,2.47,0,4.47.7,6,2.11l.14-3.02c-1.44-1.15-3.7-1.72-6.77-1.72-1.38,0-2.67.23-3.86.68-1.19.46-2.23,1.11-3.12,1.96-.89.85-1.59,1.93-2.1,3.24-.51,1.31-.76,2.77-.76,4.37s.21,3.15.64,4.42c.43,1.27,1.04,2.29,1.83,3.08s1.73,1.37,2.8,1.76c1.07.39,2.28.58,3.63.58,1.73,0,3.25-.42,4.55-1.26,1.48.84,2.95,1.26,4.4,1.26v-2.64c-.76,0-1.56-.19-2.41-.58.6-.86,1.06-1.82,1.35-2.89Zm-3.71,1.22c-.64-.61-1.15-1.29-1.54-2.03s-.58-1.47-.58-2.18c0-.61.15-1.07.44-1.41s.72-.5,1.28-.5,1.01.17,1.31.51c.31.34.46.8.46,1.4,0,1.58-.46,2.98-1.38,4.21Z"/>
        <path class="cls-3" d="m30.39,65.61c-1.13-.65-2.45-.98-3.91-.98s-2.77.33-3.92.99c-1.16.66-2.08,1.59-2.74,2.75-.66,1.17-.99,2.52-.99,4.02s.34,2.86,1.02,4.02c.68,1.17,1.65,2.1,2.88,2.77,1.23.67,2.67,1,4.28,1,1.25,0,2.4-.21,3.42-.63,1.03-.42,1.9-1.04,2.59-1.85l.16-.18-1.84-2.15-.22.24c-.51.56-1.1.98-1.77,1.26-.67.28-1.43.42-2.26.42-1,0-1.9-.2-2.67-.61-.76-.4-1.36-.96-1.79-1.68-.26-.44-.44-.92-.54-1.44h11.84l.03-.24c.02-.14.03-.28.04-.44,0-.15.01-.29.01-.41,0-1.56-.32-2.94-.96-4.11-.64-1.18-1.54-2.11-2.67-2.76Zm-7.82,4.05c.38-.7.91-1.25,1.58-1.64.67-.39,1.46-.59,2.33-.59s1.67.2,2.34.58c.66.39,1.19.93,1.57,1.62.24.44.4.92.48,1.44h-8.79c.09-.51.25-.99.49-1.42Z"/>
        <path class="cls-3" d="m41.17,77.55c-.54-.02-1.01-.2-1.41-.54-.4-.34-.6-.88-.6-1.62v-7.57h5.21v-2.63h-5.21v-4.86h-2.91v4.86h-1.43v2.63h1.43v8.09c0,1.22.39,2.21,1.18,2.97.79.76,1.76,1.15,2.92,1.17.65.03,1.37-.03,2.15-.16s1.5-.32,2.16-.58l-.69-2.27c-.91.39-1.85.55-2.8.5Z"/>
        <path class="cls-3" d="m62.5,77.28c-4.16,0-7.15-3.02-7.15-7.23s2.99-7.23,7.15-7.23c3.41,0,5.63,1.83,6.24,4.21h3.05c-.75-4.13-4.55-6.98-9.31-6.98-5.79,0-10.14,4.41-10.14,10.01s4.35,10.01,10.14,10.01c4.79,0,8.59-2.85,9.34-7.01h-3.05c-.64,2.41-2.85,4.24-6.26,4.24Z"/>
        <path class="cls-3" d="m85.07,65.62c-1.19-.66-2.56-.99-4.06-.99s-2.89.33-4.07.99c-1.18.66-2.13,1.58-2.82,2.75-.69,1.17-1.04,2.52-1.04,4.02s.35,2.83,1.04,4.01c.69,1.18,1.64,2.11,2.82,2.78,1.18.67,2.55,1.01,4.08,1.01s2.87-.34,4.06-1.01c1.19-.67,2.14-1.6,2.82-2.77.68-1.17,1.02-2.52,1.02-4.02s-.34-2.88-1.02-4.04c-.68-1.16-1.63-2.08-2.82-2.74Zm-1.66,11.08c-.7.4-1.51.6-2.4.6s-1.69-.2-2.38-.6c-.69-.4-1.25-.97-1.67-1.71-.42-.74-.63-1.61-.63-2.59s.21-1.87.63-2.59c.42-.72.98-1.29,1.67-1.68.69-.4,1.49-.6,2.38-.6s1.69.2,2.4.6c.7.4,1.25.96,1.65,1.68.4.72.6,1.59.6,2.59s-.2,1.86-.6,2.6c-.4.73-.95,1.31-1.65,1.7Z"/>
        <path class="cls-3" d="m107.21,64.83c-1.52,0-3.54.88-6.08,2.64-1.22-.85-2.32-1.5-3.3-1.96-.98-.46-1.89-.68-2.74-.68-1.32,0-2.4.43-3.25,1.3-.85.87-1.27,2.11-1.27,3.72v9.89h2.91v-9.81c0-.51.08-.91.24-1.2.16-.28.39-.53.68-.74.59-.13,1.22-.06,1.89.2.67.26,1.5.69,2.48,1.29-1.5,1.58-2.25,3.44-2.25,5.58,0,1.5.4,2.71,1.2,3.63.8.93,1.95,1.39,3.44,1.39s2.63-.46,3.42-1.39c.79-.92,1.19-2.14,1.21-3.63,0-2.14-.75-4-2.25-5.58.98-.6,1.81-1.03,2.49-1.28.68-.25,1.31-.3,1.91-.16.58.41.87,1.03.87,1.88v9.81h2.91v-9.89c0-1.62-.42-2.86-1.26-3.72s-1.93-1.3-3.26-1.3Zm-4.64,12.14c-.31.5-.77.74-1.39.74s-1.1-.25-1.41-.74c-.31-.5-.46-1.12-.46-1.88,0-1.68.62-3.14,1.87-4.39,1.24,1.24,1.85,2.7,1.85,4.39,0,.76-.15,1.38-.46,1.88Z"/>
        <path class="cls-3" d="m126.77,65.61c-1.15-.65-2.48-.98-3.96-.98-1.3,0-2.49.29-3.53.87-.53.29-1,.66-1.42,1.1v-1.83h-3.12v20.64h3.23v-7.14c.41.41.86.76,1.37,1.04,1.04.58,2.21.88,3.48.88,1.49,0,2.82-.33,3.96-.98,1.15-.65,2.07-1.57,2.74-2.74.67-1.17,1.01-2.54,1.01-4.08s-.34-2.91-1.01-4.06c-.67-1.16-1.59-2.07-2.74-2.72Zm-6.56,2.52c.7-.4,1.5-.6,2.37-.6s1.69.2,2.4.6c.7.4,1.26.96,1.67,1.68.41.72.61,1.59.61,2.59s-.21,1.85-.62,2.59c-.41.74-.97,1.31-1.67,1.71-.7.4-1.51.6-2.4.6s-1.67-.2-2.37-.6c-.7-.4-1.26-.97-1.67-1.71-.41-.74-.62-1.61-.62-2.59s.21-1.87.61-2.59c.41-.72.97-1.28,1.67-1.68Z"/>
        <path class="cls-3" d="m145.28,71.71c0-2.02-.65-3.67-1.96-4.95-1.31-1.28-3.13-1.92-5.47-1.92-1.51,0-2.82.27-3.94.82-1.12.55-2.01,1.25-2.68,2.12l1.62,2.11c.6-.75,1.32-1.35,2.17-1.8.85-.45,1.78-.67,2.8-.66.78,0,1.46.14,2.06.38.6.24,1.08.58,1.45,1s.64.9.83,1.43c.19.53.29,1.11.31,1.74-1.27-.8-2.84-1.2-4.71-1.2-1.07,0-2.09.19-3.04.56-.95.37-1.72.91-2.31,1.61-.59.7-.89,1.47-.89,2.32,0,1.47.56,2.64,1.69,3.52,1.13.88,2.67,1.31,4.63,1.31,2.25,0,4-.63,5.27-1.9.03.5.03,1.02,0,1.56h2.64c.08-1.97-.2-3.62-.84-4.97.24-.97.37-2,.37-3.07Zm-7.43,5.87c-1.03,0-1.87-.2-2.52-.61-.65-.41-.97-.98-.97-1.72,0-.64.33-1.17.99-1.59.66-.42,1.48-.63,2.48-.63,1.87,0,3.28.67,4.24,2-.65,1.7-2.05,2.54-4.21,2.54Z"/>
        <path class="cls-3" d="m159.53,66.04c-.51-.39-1.1-.69-1.75-.9-.65-.21-1.33-.31-2.04-.31-1.04,0-1.98.22-2.84.67-.85.45-1.47,1-1.85,1.66h-.23v-1.96h-2.91v14.55h2.91v-8.65c0-.92.4-1.74,1.19-2.46.79-.72,1.67-1.08,2.64-1.08.44,0,.88.07,1.3.2.42.13.81.33,1.17.59.36.26.64.61.86,1.05s.32.94.32,1.5v8.87h2.91v-10.08c0-.78-.15-1.48-.46-2.1-.31-.62-.72-1.13-1.23-1.52Z"/>
        <rect class="cls-3" x="164.6" y="65.2" width="2.91" height="14.55"/>
        <path class="cls-3" d="m167.99,60.56c-.1-.09-.16-.18-.18-.28-.03-.1-.02-.21.01-.34.04-.13.05-.21.04-.24-.03-.04-.1-.06-.22-.08-.12-.02-.22-.05-.3-.11-.07-.07-.12-.18-.14-.31-.02-.14-.05-.22-.07-.24-.05-.02-.14,0-.26.03s-.23.05-.32.02c-.1-.03-.19-.09-.27-.2-.08-.11-.15-.16-.2-.16-.04,0-.09.05-.17.16-.08.11-.18.18-.3.2-.09.03-.2.02-.32-.02-.13-.04-.21-.05-.26-.03-.04.04-.06.12-.08.24s-.05.23-.11.32c-.05.05-.15.09-.28.11-.14.02-.22.05-.24.08-.02.05-.01.13.02.26.03.13.03.24,0,.33-.02.1-.08.19-.18.28s-.15.15-.15.2c0,.04.05.1.15.18.1.09.16.17.18.26.03.1.02.21,0,.34-.03.13-.04.21-.02.24.03.03.1.05.23.07.13.02.23.07.3.14.05.07.09.17.12.3.02.13.06.21.1.25.04.02.12,0,.24-.05.12-.05.23-.06.32-.03.1.04.19.11.28.21.09.1.15.16.2.16.05,0,.12-.05.21-.16.09-.1.17-.17.26-.21.09-.03.19-.02.31.03.12.05.2.07.24.05.05-.04.08-.12.11-.26.03-.14.07-.23.14-.3.06-.05.16-.08.29-.12.13-.03.21-.06.24-.1,0-.03,0-.11-.05-.24-.05-.14-.05-.25,0-.34.03-.08.09-.16.19-.25.1-.09.15-.15.15-.2s-.05-.11-.16-.2Z"/>
        <path class="cls-3" d="m181.99,65.62c-1.19-.66-2.56-.99-4.06-.99s-2.89.33-4.07.99c-1.18.66-2.13,1.58-2.82,2.75-.69,1.17-1.04,2.52-1.04,4.02s.35,2.83,1.04,4.01c.69,1.18,1.64,2.11,2.82,2.78,1.18.67,2.55,1.01,4.08,1.01s2.87-.34,4.06-1.01c1.19-.67,2.14-1.6,2.82-2.77.68-1.17,1.02-2.52,1.02-4.02s-.34-2.88-1.02-4.04c-.68-1.16-1.63-2.08-2.82-2.74Zm-1.66,11.08c-.7.4-1.51.6-2.4.6s-1.69-.2-2.38-.6c-.69-.4-1.25-.97-1.67-1.71-.42-.74-.63-1.61-.63-2.59s.21-1.87.63-2.59c.42-.72.98-1.29,1.67-1.68.69-.4,1.49-.6,2.38-.6s1.69.2,2.4.6c.7.4,1.25.96,1.65,1.68.4.72.6,1.59.6,2.59s-.2,1.86-.6,2.6c-.4.73-.95,1.31-1.65,1.7Z"/>
        <path class="cls-3" d="m200.36,67.56c-.31-.62-.72-1.13-1.23-1.52s-1.1-.69-1.75-.9c-.65-.21-1.33-.31-2.04-.31-1.04,0-1.98.22-2.84.67-.85.45-1.47,1-1.85,1.66h-.23v-1.96h-2.91v14.55h2.91v-8.65c0-.92.4-1.74,1.19-2.46.79-.72,1.67-1.08,2.64-1.08.44,0,.88.07,1.3.2.42.13.81.33,1.17.59.36.26.64.61.86,1.05s.32.94.32,1.5v8.87h2.91v-10.08c0-.78-.15-1.48-.46-2.1Z"/>
      </g>
      <g>
        <path class="cls-2" d="m80.52,25.86l7.28,1.06c7.1,1.03,13.7-3.89,14.73-10.99h0c1.03-7.1-3.89-13.7-10.99-14.73l-7.28-1.06c-7.1-1.03-13.7,3.89-14.73,10.99h0c-.54,3.72.55,7.3,2.73,10.01.96,1.2-4.52,5-3.72,5.28.23.51,9.43-1.13,10.68-.81.43.11.86.19,1.31.26Z"/>
        <circle class="cls-1" cx="85.3" cy="34.79" r="15.45"/>
        <path class="cls-5" d="m120.68,22.09l.77,20.62c.09,2.37-1.75,4.36-4.12,4.45l-20.63.77-.28-7.55-2.06.08c-1.82.07-3.35-1.36-3.42-3.18-.03-.91.31-1.75.87-2.37.58-.61,1.38-1.01,2.29-1.05l2.06-.08-.4-10.77,9.87-.37.08,2.02c.03.91.44,1.72,1.05,2.29.62.57,1.45.91,2.37.87,1.82-.07,3.24-1.6,3.17-3.42l-.08-2.02,8.46-.32Z"/>
        <path class="cls-4" d="m124.79,13.64s0-.08,0-.13c-.02-.74-.1-1.47-.33-2.17-.47-1.65-1.36-2.86-2.12-3.64,0,0,0,0,0,0,0,0,0,0,0,0-.15-.16-.3-.3-.44-.43-.1-.09-.2-.18-.31-.27-.25-.21-.43-.33-.49-.37-.46-.31-.95-.57-1.47-.8-3.26-1.47-6.47-.89-8.92,1.63-.21.21-.25.08-.33-.08-.46-.96-1.1-1.78-1.9-2.46-1.51-1.28-3.27-1.83-5.23-1.74-3.63.16-6.29,1.85-7.79,5.19-1.1,2.46-1.04,5-.29,7.55.59,2,1.61,3.79,2.83,5.46,2.1,2.89,4.71,5.26,7.69,7.22,1.02.67,2.15.83,3.34.49,1.9-.54,3.72-1.27,5.47-2.17,2.72-1.38,5.18-3.11,7.18-5.43,1.91-2.21,3.1-4.73,3.11-7.69,0-.01,0-.02,0-.03,0-.04,0-.08,0-.11Z"/>
      </g>
    </g>
  </g>
</svg>