<?xml version="1.0" encoding="UTF-8"?>
<svg id="Layer_2" data-name="Layer 2" xmlns="http://www.w3.org/2000/svg" viewBox="0 0 51.47 45.9">
  <defs>
    <style>
      .cls-1 {
        fill: #fedf51;
      }

      .cls-1, .cls-2, .cls-3, .cls-4 {
        stroke-width: 0px;
      }

      .cls-2 {
        fill: #0061ef;
      }

      .cls-3 {
        fill: #fba1cd;
      }

      .cls-4 {
        fill: #fe7301;
      }
    </style>
  </defs>
  <g id="Layer_1-2" data-name="Layer 1">
    <g>
      <path class="cls-2" d="m11.02,23.63l6.65.97c6.49.94,12.51-3.55,13.46-10.04h0c.94-6.49-3.55-12.51-10.04-13.46L14.44.12C7.95-.82,1.92,3.68.98,10.17h0c-.49,3.4.5,6.66,2.49,9.14.88,1.09-4.13,4.57-3.4,4.82.21.46,8.61-1.03,9.76-.74.39.1.79.18,1.19.24Z"/>
      <circle class="cls-1" cx="15.39" cy="31.78" r="14.11"/>
      <path class="cls-4" d="m47.71,20.18l.71,18.84c.08,2.17-1.6,3.99-3.77,4.07l-18.84.71-.26-6.9-1.88.07c-1.66.06-3.06-1.24-3.12-2.9-.03-.83.28-1.6.8-2.16.53-.56,1.26-.93,2.1-.96l1.88-.07-.37-9.84,9.01-.34.07,1.84c.03.83.4,1.57.96,2.1.57.52,1.33.83,2.16.8,1.66-.06,2.96-1.46,2.89-3.12l-.07-1.84,7.73-.29Z"/>
      <path class="cls-3" d="m51.47,12.46s0-.08,0-.12c-.01-.67-.09-1.34-.3-1.98-.43-1.51-1.25-2.61-1.93-3.33,0,0,0,0,0,0,0,0,0,0,0,0-.14-.15-.27-.28-.4-.39-.09-.08-.19-.17-.28-.25-.23-.19-.39-.3-.45-.34-.42-.28-.87-.52-1.34-.73-2.98-1.34-5.91-.81-8.15,1.49-.19.2-.23.07-.3-.08-.42-.87-1-1.62-1.74-2.25-1.38-1.17-2.99-1.67-4.78-1.59-3.32.15-5.75,1.69-7.12,4.74-1.01,2.24-.95,4.57-.26,6.9.54,1.83,1.47,3.46,2.58,4.99,1.92,2.64,4.3,4.8,7.02,6.59.93.61,1.96.76,3.05.45,1.73-.5,3.4-1.16,5-1.98,2.48-1.26,4.73-2.85,6.56-4.96,1.75-2.02,2.83-4.32,2.84-7.02,0-.01,0-.02,0-.03,0-.04,0-.07,0-.1Z"/>
    </g>
  </g>
</svg>